<svg xmlns="http://www.w3.org/2000/svg" viewBox="0 0 271.2 45.58"><defs><style>.cls-1{fill:#00703c;}.cls-2{fill:#7ac143;}</style></defs><g id="Layer_2" data-name="Layer 2"><g id="Layer_1-2" data-name="Layer 1"><path class="cls-1" d="M44.52,20.88V21A12.21,12.21,0,0,0,56.83,33.54v8.85A21.39,21.39,0,0,1,40.51,35.2l2.77,6.49h-10l-3.26-8.45H13L9.73,41.69H0L3.62,33.2A181.49,181.49,0,0,1,35.17,22.64h0c0-.41,0-.82,0-1.24v-.12C35.13,9.67,44.23.17,56.83.17V8.45A12.12,12.12,0,0,0,44.52,20.88ZM33.78,19.39c-2.69.36-5.57.78-8.57,1.26l-3.69-9.57L17.31,22c-3.26.61-6.56,1.27-9.78,2L17.5.57h8.28Z"/><path class="cls-1" d="M87.73,15.22l1.78-2.11a7.72,7.72,0,0,0,5.3,2.19c1.83,0,3-.84,3-2.12v0c0-1.2-.67-1.85-3.79-2.57-3.58-.87-5.6-1.93-5.6-5v0c0-2.88,2.4-4.88,5.74-4.88a9.33,9.33,0,0,1,6.1,2.12L98.66,5a7.66,7.66,0,0,0-4.57-1.73c-1.73,0-2.74.89-2.74,2v0c0,1.3.77,1.88,4,2.64,3.56.87,5.4,2.14,5.4,4.93v.05c0,3.14-2.47,5-6,5A10.31,10.31,0,0,1,87.73,15.22Z"/><path class="cls-1" d="M103.15,11.41v-.05a6.54,6.54,0,0,1,6.58-6.63,6.32,6.32,0,0,1,5.07,2.19L113,8.86a4.25,4.25,0,0,0-3.29-1.58,3.8,3.8,0,0,0-3.65,4v0a3.85,3.85,0,0,0,3.79,4.08,4.47,4.47,0,0,0,3.29-1.58l1.76,1.72A6.41,6.41,0,0,1,109.71,18,6.47,6.47,0,0,1,103.15,11.41Z"/><path class="cls-1" d="M117.41.14h2.9V7a4.57,4.57,0,0,1,4-2.23c2.86,0,4.52,1.92,4.52,4.88v8.06h-2.91v-7.2c0-2-1-3.1-2.71-3.1a2.83,2.83,0,0,0-2.86,3.15v7.15h-2.9Z"/><path class="cls-1" d="M131.57,11.41v-.05a6.63,6.63,0,0,1,6.78-6.63,6.56,6.56,0,0,1,6.74,6.58v0A6.62,6.62,0,0,1,138.3,18,6.56,6.56,0,0,1,131.57,11.41Zm10.62,0v-.05a3.91,3.91,0,0,0-3.89-4.08,3.8,3.8,0,0,0-3.82,4v0a3.93,3.93,0,0,0,3.87,4.08A3.82,3.82,0,0,0,142.19,11.41Z"/><path class="cls-1" d="M147.3,11.41v-.05a6.76,6.76,0,0,1,13.52,0v0A6.63,6.63,0,0,1,154,18,6.55,6.55,0,0,1,147.3,11.41Zm10.61,0v-.05A3.91,3.91,0,0,0,154,7.28a3.8,3.8,0,0,0-3.82,4v0a3.93,3.93,0,0,0,3.87,4.08A3.82,3.82,0,0,0,157.91,11.41Z"/><path class="cls-1" d="M163.84.14h2.91V17.67h-2.91Z"/><path class="cls-1" d="M177.05,11.41v-.05a6.76,6.76,0,0,1,13.52,0v0a6.62,6.62,0,0,1-6.79,6.6A6.56,6.56,0,0,1,177.05,11.41Zm10.62,0v-.05a3.91,3.91,0,0,0-3.89-4.08,3.8,3.8,0,0,0-3.82,4v0a3.93,3.93,0,0,0,3.86,4.08A3.83,3.83,0,0,0,187.67,11.41Z"/><path class="cls-1" d="M193.84,7.49h-1.61V5.07h1.61V4.15a4.27,4.27,0,0,1,1-3.14,3.83,3.83,0,0,1,2.85-1,7.57,7.57,0,0,1,2.36.34V2.79a4.94,4.94,0,0,0-1.71-.32c-1.1,0-1.68.6-1.68,1.92v.7h3.36v2.4h-3.31V17.67h-2.91Z"/><path class="cls-1" d="M88.86,24.89H92l5.12,7.94,5.11-7.94h3.15v16.8h-2.95v-12l-5.31,7.92H97l-5.26-7.87v12h-2.9Z"/><path class="cls-1" d="M108.78,35.4v0a6.29,6.29,0,0,1,6.2-6.6c4,0,6.07,3.17,6.07,6.82,0,.27,0,.53,0,.82h-9.32a3.55,3.55,0,0,0,3.65,3.22,4.58,4.58,0,0,0,3.43-1.52l1.71,1.52A6.41,6.41,0,0,1,115.29,42,6.33,6.33,0,0,1,108.78,35.4Zm9.39-.93c-.19-1.88-1.29-3.34-3.22-3.34-1.77,0-3,1.37-3.29,3.34Z"/><path class="cls-1" d="M123.32,35.38v-.05c0-4.2,2.85-6.58,5.88-6.58A5.25,5.25,0,0,1,133.52,31V24.16h2.91V41.69h-2.91V39.58A5.07,5.07,0,0,1,129.2,42C126.22,42,123.32,39.58,123.32,35.38Zm10.25,0v-.05a3.81,3.81,0,0,0-3.67-4.06c-2,0-3.65,1.54-3.65,4.06v.05a3.77,3.77,0,0,0,3.65,4.06A3.82,3.82,0,0,0,133.57,35.38Z"/><path class="cls-1" d="M140,24.31h3.12v2.76H140Zm.12,4.71h2.91V41.69h-2.91Z"/><path class="cls-1" d="M154.49,41.69V40.13a5.09,5.09,0,0,1-4.1,1.83c-2.4,0-4.52-1.37-4.52-3.92v0c0-2.81,2.19-4.16,5.14-4.16a10.76,10.76,0,0,1,3.51.53v-.24c0-1.75-1.11-2.71-3.12-2.71a8.83,8.83,0,0,0-3.63.79L147,29.88a10.92,10.92,0,0,1,4.83-1.06c3.74,0,5.57,2,5.57,5.36v7.51Zm.08-5.3a8.29,8.29,0,0,0-2.91-.51c-1.82,0-2.9.75-2.9,2v0c0,1.2,1.08,1.87,2.44,1.87,1.93,0,3.37-1.08,3.37-2.66Z"/><path class="cls-1" d="M177.79,39.75a7.41,7.41,0,0,1-5.16,2.19c-3.12,0-5.47-1.9-5.47-4.81v-.05c0-2.16,1.27-3.72,3.57-4.7a5.47,5.47,0,0,1-1.39-3.51v-.05c0-2.25,1.83-4.22,4.83-4.22a4.14,4.14,0,0,1,4.46,4v.05c0,2.21-1.46,3.53-3.69,4.37L177.82,36a23.59,23.59,0,0,0,1.8-3.24l2.23,1.18a26.26,26.26,0,0,1-2.28,3.84l2.64,2.69L180,42ZM176.11,38l-3.74-3.82A3.13,3.13,0,0,0,170.13,37v0a2.57,2.57,0,0,0,2.81,2.45A4.64,4.64,0,0,0,176.11,38ZM176,28.87v-.05a1.82,1.82,0,0,0-1.92-1.89,1.91,1.91,0,0,0-2,2v0a3.56,3.56,0,0,0,1.28,2.5C175.1,30.87,176,30.07,176,28.87Z"/><path class="cls-1" d="M192.3,24.89h6.27c5.29,0,8.94,3.62,8.94,8.35v0c0,4.73-3.65,8.4-8.94,8.4H192.3ZM198.57,39a5.48,5.48,0,0,0,5.84-5.66v-.05a5.52,5.52,0,0,0-5.84-5.72h-3.31V39Z"/><path class="cls-1" d="M210.07,35.4v0a6.29,6.29,0,0,1,6.2-6.6c4,0,6.07,3.17,6.07,6.82a7.83,7.83,0,0,1-.05.82H213a3.54,3.54,0,0,0,3.65,3.22,4.6,4.6,0,0,0,3.43-1.52l1.71,1.52A6.43,6.43,0,0,1,216.58,42,6.32,6.32,0,0,1,210.07,35.4Zm9.39-.93c-.19-1.88-1.3-3.34-3.22-3.34s-3,1.37-3.29,3.34Z"/><path class="cls-1" d="M224.16,40l1.3-2a7.12,7.12,0,0,0,4.15,1.56c1.25,0,2-.53,2-1.37v0c0-1-1.34-1.32-2.83-1.77-1.88-.53-4-1.3-4-3.73v0c0-2.41,2-3.87,4.52-3.87A8.81,8.81,0,0,1,234,30.24l-1.16,2.07a7.3,7.3,0,0,0-3.57-1.21c-1.13,0-1.78.53-1.78,1.28v0c0,.91,1.37,1.29,2.86,1.77,1.85.58,3.94,1.42,3.94,3.7V38c0,2.66-2.07,4-4.71,4A8.9,8.9,0,0,1,224.16,40Z"/><path class="cls-1" d="M237.12,24.31h3.13v2.76h-3.13Zm.12,4.71h2.91V41.69h-2.91Z"/><path class="cls-1" d="M243.7,44.07l1.08-2.18a8.22,8.22,0,0,0,4.51,1.34c2.6,0,4-1.34,4-3.89v-1a5.29,5.29,0,0,1-4.46,2.33,5.7,5.7,0,0,1-5.77-5.94v0a5.72,5.72,0,0,1,5.77-6,5.5,5.5,0,0,1,4.44,2.16V29h2.9V39.1a6.52,6.52,0,0,1-1.6,4.78,7.17,7.17,0,0,1-5.22,1.7A10.86,10.86,0,0,1,243.7,44.07Zm9.63-9.32v0a3.55,3.55,0,0,0-3.72-3.51A3.43,3.43,0,0,0,246,34.68v0a3.46,3.46,0,0,0,3.61,3.51A3.56,3.56,0,0,0,253.33,34.75Z"/><path class="cls-1" d="M259.82,29h2.91v2a4.56,4.56,0,0,1,4-2.23c2.86,0,4.51,1.92,4.51,4.88v8.06h-2.9v-7.2c0-2-1-3.1-2.71-3.1a2.82,2.82,0,0,0-2.86,3.15v7.15h-2.91Z"/><path class="cls-2" d="M72,41.64l0,0V.86h1.87V41.69H71.91Z"/></g></g></svg>