<svg xmlns="http://www.w3.org/2000/svg" viewBox="0 0 181.1 134.57"><defs><style>.cls-1{fill:#00703c;}</style></defs><g id="Layer_2" data-name="Layer 2"><g id="Layer_1-2" data-name="Layer 1"><path class="cls-1" d="M141.88,66v.37c0,21.81,16.18,40,39.22,40v28.21c-21.37,0-39.63-8.85-52-22.93l8.8,20.7H106.17L95.8,105.41H41.37L31,132.34H0l11.52-27.06c30.15-13.49,64-24.88,100.56-33.66h0c-.08-1.32-.12-2.63-.12-4v-.37C112,30.29,141,0,181.1,0V26.4C158.06,26.4,141.88,44.2,141.88,66Zm-34.22-4.76c-8.57,1.16-17.77,2.5-27.32,4L68.59,34.78,55.15,69.64C44.76,71.57,34.27,73.68,24,76L55.76,1.3H82.15Z"/></g></g></svg>